<?xml version="1.0" standalone="no"?>
<!DOCTYPE svg PUBLIC "-//W3C//DTD SVG 20010904//EN"
 "http://www.w3.org/TR/2001/REC-SVG-20010904/DTD/svg10.dtd">
<svg version="1.0" xmlns="http://www.w3.org/2000/svg"
 width="340.000000pt" height="340.000000pt" viewBox="0 0 340.000000 340.000000"
 preserveAspectRatio="xMidYMid meet">
<metadata>
Created by potrace 1.11, written by Peter Selinger 2001-2013
</metadata>
<g transform="translate(0.000000,340.000000) scale(0.100000,-0.100000)"
fill="#000000" stroke="none">
<path d="M798 2714 c-16 -8 -29 -21 -29 -29 -1 -8 -2 -21 -3 -27 -1 -7 6 -25
16 -40 l18 -27 -349 1 c-384 0 -387 0 -428 -61 l-23 -34 0 -864 c0 -919 -1
-892 46 -935 11 -9 33 -19 49 -23 29 -5 28 -5 -5 10 -19 9 -44 28 -55 43 -19
26 -20 45 -20 892 -1 579 2 873 9 890 29 69 35 70 402 69 181 0 341 1 357 1
17 0 27 5 27 15 0 8 -4 15 -9 15 -5 0 -14 13 -19 30 -9 24 -7 33 8 52 17 21
25 22 156 23 166 1 172 0 167 -28 -4 -17 -11 -22 -36 -21 -18 1 -38 -1 -44 -3
-15 -6 -17 -33 -3 -33 5 0 9 5 7 12 -1 7 12 12 36 12 38 1 56 16 51 44 -1 6
-2 17 -3 22 -2 17 -291 12 -323 -6z"/>
<path d="M1141 2689 c-7 -23 -15 -47 -18 -55 -3 -8 0 -14 6 -14 6 0 10 3 9 8
-2 11 14 66 23 78 5 6 30 10 55 9 l47 -1 19 -60 c11 -32 20 -65 20 -71 1 -7 6
-13 11 -13 5 0 6 8 2 18 -4 9 -8 22 -9 27 -1 6 -5 15 -8 21 -4 6 -9 21 -12 35
-10 55 -15 59 -75 59 l-58 0 -12 -41z"/>
<path d="M1349 2728 c-5 -15 -3 -180 2 -184 4 -2 7 24 7 59 0 126 -9 113 82
112 83 -2 110 -13 110 -46 0 -11 4 -19 9 -19 19 0 -10 57 -35 69 -21 9 -172
17 -175 9z"/>
<path d="M1661 2718 c0 -7 15 -55 32 -107 28 -83 35 -95 57 -97 25 -3 25 -3 3
8 -16 8 -31 36 -52 99 -16 49 -26 90 -23 92 4 2 18 3 32 3 19 -1 27 -8 35 -33
5 -18 12 -33 16 -33 3 0 10 15 15 33 9 28 14 32 44 32 31 0 36 -4 45 -32 5
-18 12 -33 16 -33 3 0 10 15 16 33 7 26 14 31 33 29 13 -1 26 -4 28 -7 4 -3
-35 -140 -45 -157 -2 -5 -1 -8 4 -8 7 0 36 83 53 158 l8 33 -41 -3 c-35 -2
-43 -7 -45 -26 -4 -26 -22 -20 -22 9 0 16 -7 19 -46 19 -37 0 -47 -4 -51 -20
-3 -11 -9 -20 -14 -20 -5 0 -9 9 -9 20 0 17 -7 20 -45 20 -30 0 -45 -4 -44
-12z"/>
<path d="M2006 2721 c-4 -5 18 -8 49 -7 32 2 59 -2 64 -8 19 -25 57 -165 49
-180 -6 -10 -5 -16 1 -16 18 0 23 21 13 48 -6 15 -21 60 -33 100 l-22 72 -58
0 c-32 0 -60 -4 -63 -9z"/>
<path d="M2209 2713 c-4 -49 -4 -179 -1 -189 1 -6 21 -11 42 -11 35 0 40 3 40
24 0 12 5 23 10 23 6 0 10 -3 10 -8 0 -15 47 -35 87 -37 45 -1 50 9 5 11 -15
1 -32 2 -39 3 -7 1 -28 15 -47 31 l-35 31 -3 -32 c-3 -32 -23 -44 -52 -33 -12
5 -15 161 -4 180 4 5 38 10 77 9 53 0 76 -5 92 -18 11 -10 23 -16 25 -14 3 3
-7 14 -22 26 -22 17 -40 21 -105 21 -68 0 -79 -2 -80 -17z"/>
<path d="M2492 2710 c-25 -24 -29 -72 -7 -90 26 -21 17 -27 -41 -28 -54 0 -55
0 -38 19 9 10 13 19 7 19 -14 0 -44 -35 -36 -43 8 -9 128 -9 136 -1 3 4 -3 18
-13 32 -24 30 -26 65 -4 83 23 19 126 19 141 0 11 -14 12 -13 13 7 0 21 -4 22
-68 22 -55 0 -73 -4 -90 -20z"/>
<path d="M1201 2650 c-17 -49 -14 -60 15 -60 24 0 25 2 19 33 -12 56 -21 63
-34 27z m22 -49 c-9 -12 -23 18 -16 35 6 17 8 17 13 -6 4 -14 5 -27 3 -29z"/>
<path d="M2061 2658 c-24 -64 -24 -68 3 -68 30 0 43 17 26 33 -9 9 -11 9 -7 1
4 -7 0 -14 -8 -18 -10 -4 -15 1 -15 14 0 12 7 20 18 21 9 0 12 3 5 5 -7 3 -9
12 -6 20 3 8 2 14 -1 14 -4 0 -10 -10 -15 -22z"/>
<path d="M2625 2670 c-11 -5 -30 -6 -41 -3 -32 7 -36 -10 -9 -41 24 -27 25
-34 11 -73 -8 -23 -13 -25 -78 -26 -21 -1 -38 -4 -38 -8 0 -13 102 -1 116 13
23 23 24 65 3 92 -25 32 -24 36 9 31 16 -2 35 1 43 5 19 12 8 19 -16 10z"/>
<path d="M854 2658 c-3 -5 3 -20 15 -32 12 -12 21 -32 21 -44 0 -25 -36 -66
-50 -57 -6 4 -10 1 -10 -5 0 -7 7 -9 16 -6 9 3 19 6 24 6 4 0 14 14 23 32 11
24 13 37 4 55 -5 12 -14 23 -19 23 -4 0 -8 6 -8 13 0 12 9 13 76 8 6 -1 10
-25 9 -61 -1 -33 2 -65 6 -71 5 -9 6 119 0 141 -2 9 -101 7 -107 -2z"/>
<path d="M1458 2663 c18 -3 32 -9 30 -15 -5 -13 -48 -19 -48 -6 0 4 -4 8 -10
8 -5 0 -7 -6 -4 -14 3 -9 18 -14 37 -13 25 2 33 7 35 25 3 20 -1 22 -35 20
-38 -1 -38 -1 -5 -5z"/>
<path d="M1979 2628 c-27 -96 -22 -105 9 -15 10 31 15 57 11 57 -5 0 -14 -19
-20 -42z"/>
<path d="M2283 2655 c-7 -20 0 -27 34 -31 27 -3 43 9 43 34 0 18 -69 16 -77
-3z m61 -4 c3 -5 -5 -11 -19 -13 -17 -4 -25 -1 -25 8 0 15 36 19 44 5z"/>
<path d="M2410 2655 c0 -8 4 -15 8 -15 5 0 9 7 9 15 0 8 -4 15 -9 15 -4 0 -8
-7 -8 -15z"/>
<path d="M1533 2616 c-28 -29 -21 -36 34 -36 43 0 43 0 43 -37 0 -43 13 -37
15 8 2 37 -7 43 -58 41 -40 -2 -40 -2 -22 18 26 28 14 33 -12 6z"/>
<path d="M1110 2586 c-24 -64 -23 -71 10 -72 16 -1 30 2 30 6 0 5 -8 7 -17 5
-29 -4 -33 4 -17 41 8 20 13 39 10 41 -3 3 -10 -6 -16 -21z"/>
<path d="M1801 2573 c-7 -21 -15 -45 -17 -53 -3 -9 1 -7 10 4 9 11 16 29 16
40 1 20 1 20 15 2 8 -10 12 -22 10 -26 -3 -4 2 -13 9 -19 12 -10 12 -3 -2 38
-9 28 -19 51 -22 51 -4 0 -12 -17 -19 -37z"/>
<path d="M2675 2592 c-16 -2 -33 -7 -37 -10 -4 -4 41 -6 100 -5 59 1 210 2
336 3 126 0 227 3 223 6 -6 7 -569 12 -622 6z"/>
<path d="M1020 2566 c0 -13 -3 -31 -6 -40 -3 -9 -2 -16 4 -16 5 0 12 18 14 40
2 22 0 40 -4 40 -5 0 -8 -11 -8 -24z"/>
<path d="M1418 2558 c-3 -31 -5 -33 -41 -31 -21 0 -35 -2 -32 -5 12 -12 76
-10 80 2 12 39 14 66 6 66 -5 0 -11 -15 -13 -32z"/>
<path d="M3310 2580 c0 -5 6 -10 13 -10 16 0 57 -42 57 -58 0 -7 5 -12 10 -12
16 0 -8 41 -39 67 -28 25 -41 29 -41 13z"/>
<path d="M1446 2556 c9 -23 94 -57 94 -37 0 6 -9 8 -19 6 -11 -2 -31 7 -46 21
-30 27 -37 30 -29 10z"/>
<path d="M1170 2546 c-5 -5 -10 -17 -10 -25 1 -12 4 -11 13 4 14 23 64 26 81
4 12 -15 49 -22 40 -8 -3 5 -11 9 -19 9 -7 0 -15 5 -17 10 -4 14 -75 19 -88 6z"/>
<path d="M1314 2535 c-1 -14 2 -25 7 -25 5 0 9 11 9 25 0 33 -15 33 -16 0z"/>
<path d="M2023 2541 c-19 -19 -31 -21 -55 -9 -13 6 -18 5 -18 -5 0 -20 61 -17
80 3 20 21 67 18 85 -6 15 -20 21 -8 7 14 -13 20 -80 23 -99 3z"/>
<path d="M2639 2538 c4 -12 15 -22 24 -24 10 -1 15 2 11 7 -3 5 -10 7 -15 4
-5 -4 -9 3 -9 14 0 12 -4 21 -10 21 -5 0 -6 -9 -1 -22z"/>
<path d="M115 2514 c-10 -7 -22 -15 -28 -17 -6 -2 -12 -34 -14 -71 -2 -37 0
-65 5 -62 4 2 7 20 5 38 -6 79 27 120 94 112 14 -1 22 1 18 4 -12 12 -61 9
-80 -4z"/>
<path d="M230 2520 c0 -5 5 -10 10 -10 6 0 10 5 10 10 0 6 -4 10 -10 10 -5 0
-10 -4 -10 -10z"/>
<path d="M280 2519 c0 -3 11 -6 25 -6 14 0 25 3 25 6 0 4 -11 7 -25 7 -14 0
-25 -3 -25 -7z"/>
<path d="M340 2519 c0 -3 18 -6 40 -6 22 0 38 3 34 6 -8 8 -74 8 -74 0z"/>
<path d="M470 2522 c0 -4 9 -8 20 -9 11 -1 20 2 20 5 0 4 -9 8 -20 9 -11 1
-20 -2 -20 -5z"/>
<path d="M520 2519 c0 -3 11 -6 25 -6 14 0 25 3 25 6 0 4 -11 7 -25 7 -14 0
-25 -3 -25 -7z"/>
<path d="M580 2520 c0 -5 5 -10 11 -10 5 0 7 5 4 10 -3 6 -8 10 -11 10 -2 0
-4 -4 -4 -10z"/>
<path d="M610 2520 c0 -4 14 -7 30 -7 17 0 30 3 30 7 0 3 -13 6 -30 6 -16 0
-30 -3 -30 -6z"/>
<path d="M680 2519 c0 -3 11 -6 25 -6 14 0 25 3 25 6 0 4 -11 7 -25 7 -14 0
-25 -3 -25 -7z"/>
<path d="M740 2520 c0 -5 5 -10 11 -10 5 0 7 5 4 10 -3 6 -8 10 -11 10 -2 0
-4 -4 -4 -10z"/>
<path d="M770 2518 c0 -4 4 -8 9 -8 6 0 12 4 15 8 3 5 -1 9 -9 9 -8 0 -15 -4
-15 -9z"/>
<path d="M980 2520 c0 -5 5 -10 11 -10 5 0 7 5 4 10 -3 6 -8 10 -11 10 -2 0
-4 -4 -4 -10z"/>
<path d="M1890 2520 c0 -5 4 -10 9 -10 6 0 13 5 16 10 3 6 -1 10 -9 10 -9 0
-16 -4 -16 -10z"/>
<path d="M2710 2522 c0 -4 9 -8 20 -9 11 -1 20 2 20 5 0 4 -9 8 -20 9 -11 1
-20 -2 -20 -5z"/>
<path d="M2760 2519 c0 -3 11 -6 25 -6 14 0 25 3 25 6 0 4 -11 7 -25 7 -14 0
-25 -3 -25 -7z"/>
<path d="M2825 2520 c-3 -5 -1 -10 4 -10 6 0 11 5 11 10 0 6 -2 10 -4 10 -3 0
-8 -4 -11 -10z"/>
<path d="M2850 2518 c0 -3 9 -6 20 -5 11 1 20 5 20 9 0 3 -9 6 -20 5 -11 -1
-20 -5 -20 -9z"/>
<path d="M2900 2518 c0 -4 7 -8 15 -8 8 0 15 4 15 8 0 5 -7 9 -15 9 -8 0 -15
-4 -15 -9z"/>
<path d="M2945 2520 c-2 -3 21 -6 51 -7 30 0 54 2 54 6 0 8 -100 9 -105 1z"/>
<path d="M3060 2518 c0 -4 7 -8 15 -8 8 0 15 4 15 8 0 5 -7 9 -15 9 -8 0 -15
-4 -15 -9z"/>
<path d="M3100 2520 c0 -3 36 -6 80 -6 44 -1 80 2 80 5 0 3 -36 6 -80 6 -44 0
-80 -2 -80 -5z"/>
<path d="M3270 2520 c0 -5 5 -10 11 -10 17 0 37 -25 48 -61 l11 -34 -5 34 c-6
37 -18 57 -47 72 -12 6 -18 6 -18 -1z"/>
<path d="M3391 2474 c0 -11 3 -14 6 -6 3 7 2 16 -1 19 -3 4 -6 -2 -5 -13z"/>
<path d="M163 2454 c-2 -6 -3 -37 -1 -69 l3 -58 570 0 570 0 3 67 c2 36 -1 67
-5 67 -4 1 -262 2 -572 3 -408 1 -565 -2 -568 -10z"/>
<path d="M1355 2460 c-8 -15 14 -35 40 -35 29 -1 30 -2 29 -47 -1 -41 2 -47
22 -51 34 -6 42 4 46 53 3 41 5 45 31 47 15 1 28 -1 28 -5 1 -4 2 -23 3 -42 2
-46 10 -57 38 -55 16 1 25 9 28 26 4 20 11 25 35 24 23 0 30 -5 30 -20 0 -22
21 -34 48 -27 15 4 17 14 15 71 -3 70 -1 68 -59 62 -6 0 -9 -10 -6 -21 3 -11
0 -20 -6 -21 -48 -4 -52 -3 -57 21 l-5 25 -128 0 c-71 0 -130 -2 -132 -5z"/>
<path d="M1779 2450 c0 -8 -2 -39 -3 -67 -2 -60 -13 -54 114 -55 67 -1 75 1
75 18 0 16 -8 19 -57 19 -31 0 -60 3 -64 8 -7 7 30 11 74 7 14 -1 22 4 22 14
0 13 -11 16 -51 16 -27 0 -48 4 -45 9 3 4 31 8 63 8 46 0 59 3 61 16 4 20 9
19 -100 21 -72 1 -88 -1 -89 -14z"/>
<path d="M2019 2460 c-1 -3 -2 -33 -3 -67 l-2 -63 30 -1 c171 -4 1188 -1 1193
5 8 8 11 125 3 127 -17 4 -1220 3 -1221 -1z"/>
<path d="M3393 2405 c0 -27 2 -38 4 -22 2 15 2 37 0 50 -2 12 -4 0 -4 -28z"/>
<path d="M3325 2359 c5 -70 14 -74 12 -5 -1 31 -5 56 -9 56 -3 0 -5 -23 -3
-51z"/>
<path d="M70 2264 c0 -48 2 -85 6 -82 8 9 10 159 2 164 -5 3 -8 -34 -8 -82z"/>
<path d="M3393 2275 c0 -44 2 -61 4 -37 2 23 2 59 0 80 -2 20 -4 1 -4 -43z"/>
<path d="M3325 2239 c5 -70 14 -74 12 -5 -1 31 -5 56 -9 56 -3 0 -5 -23 -3
-51z"/>
<path d="M401 2238 c-129 -22 -219 -126 -224 -261 -5 -97 36 -189 106 -240 63
-46 92 -52 272 -52 l170 0 2 76 1 76 -118 0 c-142 1 -178 14 -205 73 -20 45
-16 87 15 130 27 38 60 47 163 48 48 0 100 1 116 1 l29 1 1 75 c1 41 -2 75 -6
76 -35 5 -290 3 -322 -3z"/>
<path d="M801 2235 c-5 -5 -8 -131 -7 -280 l1 -270 220 0 220 0 1 76 1 76
-109 -1 c-60 0 -116 2 -125 5 -14 5 -16 30 -17 204 l-1 199 -88 1 c-49 0 -92
-4 -96 -10z"/>
<path d="M1567 2244 c-1 -1 -18 -5 -37 -8 -115 -19 -188 -65 -226 -145 -50
-103 -31 -257 40 -326 59 -57 144 -86 266 -89 84 -3 140 8 208 39 90 41 140
118 146 223 8 165 -77 266 -254 299 -25 4 -140 10 -143 7z m150 -186 c59 -55
40 -194 -30 -223 -43 -18 -117 -14 -150 8 -58 38 -66 167 -14 215 47 44 147
44 194 0z"/>
<path d="M2032 2241 c-5 -3 -9 -125 -8 -281 l1 -275 95 0 95 0 3 103 c1 56 5
102 8 102 35 0 129 -93 159 -158 10 -20 22 -40 28 -43 5 -4 49 -6 98 -6 l89 0
0 278 c0 213 -3 278 -12 281 -11 3 -161 2 -178 -1 -3 -1 -5 -46 -4 -101 0 -55
-1 -100 -2 -100 -1 0 -31 28 -66 63 -37 37 -86 74 -118 90 -62 28 -174 57
-188 48z"/>
<path d="M2687 2242 c-20 -4 -18 22 -20 -295 -2 -251 -1 -258 18 -262 11 -2
139 -3 285 -2 l265 2 2 60 c2 101 14 94 -165 94 -234 -1 -214 -3 -210 29 l3
27 129 2 c71 1 135 4 141 7 7 2 11 26 10 63 l-2 58 -124 1 c-68 1 -132 2 -141
3 -13 1 -18 9 -18 31 l0 29 153 0 c83 0 169 0 189 0 l37 1 -2 77 -2 77 -266 1
c-146 0 -273 -1 -282 -3z"/>
<path d="M3393 2115 c0 -44 2 -61 4 -37 2 23 2 59 0 80 -2 20 -4 1 -4 -43z"/>
<path d="M71 2025 c0 -80 4 -145 7 -145 4 0 7 65 7 145 0 80 -3 145 -8 145 -4
0 -7 -65 -6 -145z"/>
<path d="M3325 2138 c8 -45 14 -47 12 -4 -1 20 -5 36 -10 36 -4 0 -5 -14 -2
-32z"/>
<path d="M3325 2039 c5 -70 14 -74 12 -5 -1 31 -5 56 -9 56 -3 0 -5 -23 -3
-51z"/>
<path d="M3393 1955 c0 -44 2 -61 4 -37 2 23 2 59 0 80 -2 20 -4 1 -4 -43z"/>
<path d="M3325 1919 c5 -70 14 -74 12 -5 -1 31 -5 56 -9 56 -3 0 -5 -23 -3
-51z"/>
<path d="M70 1786 c0 -49 2 -87 5 -84 9 9 12 147 3 161 -4 6 -8 -28 -8 -77z"/>
<path d="M3393 1825 c0 -27 2 -38 4 -22 2 15 2 37 0 50 -2 12 -4 0 -4 -28z"/>
<path d="M3323 1830 c5 -29 13 -33 13 -5 0 14 -4 25 -8 25 -4 0 -7 -9 -5 -20z"/>
<path d="M3325 1758 c8 -45 14 -47 12 -4 -1 20 -5 36 -10 36 -4 0 -5 -14 -2
-32z"/>
<path d="M3391 1754 c0 -11 3 -14 6 -6 3 7 2 16 -1 19 -3 4 -6 -2 -5 -13z"/>
<path d="M3391 1714 c0 -11 3 -14 6 -6 3 7 2 16 -1 19 -3 4 -6 -2 -5 -13z"/>
<path d="M3326 1668 c8 -59 15 -62 12 -5 -2 26 -6 47 -10 47 -4 0 -5 -19 -2
-42z"/>
<path d="M71 1545 c0 -80 4 -145 7 -145 4 0 7 65 7 145 0 80 -3 145 -8 145 -4
0 -7 -65 -6 -145z"/>
<path d="M3391 1674 c0 -11 3 -14 6 -6 3 7 2 16 -1 19 -3 4 -6 -2 -5 -13z"/>
<path d="M3392 1625 c0 -16 2 -22 5 -12 2 9 2 23 0 30 -3 6 -5 -1 -5 -18z"/>
<path d="M280 1596 c0 -15 70 -239 80 -258 6 -10 10 -23 10 -29 0 -23 83 -274
93 -280 5 -4 50 -6 99 -6 97 0 100 2 114 72 2 11 15 49 28 84 l23 65 12 -36
c6 -19 13 -44 16 -54 2 -10 12 -44 23 -74 l19 -55 99 -1 99 0 43 140 c24 78
63 205 88 284 25 78 43 145 40 150 -3 6 -169 9 -197 3 -4 0 -19 -46 -35 -101
-15 -55 -31 -97 -34 -93 -4 5 -17 46 -30 93 -13 47 -27 90 -31 95 -5 6 -49 10
-106 9 -123 -2 -120 -2 -120 -16 0 -7 -5 -32 -12 -55 -6 -24 -16 -61 -21 -83
-12 -45 -25 -52 -33 -17 -19 80 -41 153 -49 162 -11 13 -218 14 -218 1z"/>
<path d="M1249 1599 c-6 -3 -11 -12 -13 -20 -1 -8 -9 -36 -18 -64 -9 -27 -26
-84 -38 -125 -13 -41 -26 -84 -30 -95 -11 -27 -70 -225 -76 -251 -4 -21 -1
-21 103 -20 l106 1 14 41 14 41 100 1 c100 1 100 1 111 -26 23 -59 19 -57 127
-58 55 0 101 2 101 5 0 3 -16 58 -36 121 -19 63 -37 122 -39 130 -9 32 -99
315 -102 320 -6 7 -313 6 -324 -1z m176 -195 c2 -11 13 -48 24 -84 12 -36 21
-66 21 -67 0 -2 -25 -3 -55 -3 -55 0 -55 0 -49 28 4 15 11 35 16 45 5 9 6 17
2 17 -3 0 -2 6 4 13 5 6 13 27 17 45 7 35 13 37 20 6z"/>
<path d="M1799 1595 c-4 -40 -3 -559 1 -565 3 -4 55 -7 115 -6 l110 1 1 55 c4
123 -5 119 79 36 62 -61 83 -76 122 -84 28 -6 152 -10 298 -9 260 3 272 4 325
49 17 14 54 78 46 78 -3 0 -2 11 3 23 18 46 -6 111 -65 177 -30 33 -54 62 -54
64 0 3 77 4 171 4 94 0 173 2 175 5 7 6 6 165 0 175 -5 8 -440 7 -473 -1 -75
-19 -127 -85 -129 -161 -1 -61 14 -94 72 -156 37 -39 41 -48 27 -52 -31 -6
-313 -2 -320 6 -4 4 12 24 35 44 108 95 82 250 -53 308 -33 14 -76 17 -262 18
-147 1 -223 -2 -224 -9z m382 -162 c17 -17 18 -51 3 -64 -15 -12 -116 -20
-141 -11 -15 5 -18 79 -3 84 20 6 133 -1 141 -9z"/>
<path d="M3325 1559 c5 -70 14 -74 12 -5 -1 31 -5 56 -9 56 -3 0 -5 -23 -3
-51z"/>
<path d="M3393 1535 c0 -33 2 -45 4 -27 2 18 2 45 0 60 -2 15 -4 0 -4 -33z"/>
<path d="M3325 1439 c5 -70 14 -74 12 -5 -1 31 -5 56 -9 56 -3 0 -5 -23 -3
-51z"/>
<path d="M3393 1415 c0 -33 2 -45 4 -27 2 18 2 45 0 60 -2 15 -4 0 -4 -33z"/>
<path d="M70 1306 c0 -49 2 -87 5 -84 9 9 12 147 3 161 -4 6 -8 -28 -8 -77z"/>
<path d="M3323 1350 c5 -29 13 -33 13 -5 0 14 -4 25 -8 25 -4 0 -7 -9 -5 -20z"/>
<path d="M3392 1325 c0 -16 2 -22 5 -12 2 9 2 23 0 30 -3 6 -5 -1 -5 -18z"/>
<path d="M3325 1278 c8 -45 14 -47 12 -4 -1 20 -5 36 -10 36 -4 0 -5 -14 -2
-32z"/>
<path d="M3391 1274 c0 -11 3 -14 6 -6 3 7 2 16 -1 19 -3 4 -6 -2 -5 -13z"/>
<path d="M3391 1234 c0 -11 3 -14 6 -6 3 7 2 16 -1 19 -3 4 -6 -2 -5 -13z"/>
<path d="M3326 1188 c8 -59 15 -62 12 -5 -2 26 -6 47 -10 47 -4 0 -5 -19 -2
-42z"/>
<path d="M71 1065 c0 -80 4 -145 7 -145 4 0 7 65 7 145 0 80 -3 145 -8 145 -4
0 -7 -65 -6 -145z"/>
<path d="M3393 1145 c0 -38 2 -53 4 -32 2 20 2 52 0 70 -2 17 -4 1 -4 -38z"/>
<path d="M3325 1079 c5 -70 14 -74 12 -5 -1 31 -5 56 -9 56 -3 0 -5 -23 -3
-51z"/>
<path d="M3393 995 c0 -44 2 -61 4 -37 2 23 2 59 0 80 -2 20 -4 1 -4 -43z"/>
<path d="M3325 959 c5 -70 14 -74 12 -5 -1 31 -5 56 -9 56 -3 0 -5 -23 -3 -51z"/>
<path d="M162 876 l3 -69 1528 -1 c841 -1 1534 2 1540 6 11 6 17 127 7 129 -3
1 -697 2 -1543 3 l-1538 1 3 -69z"/>
<path d="M70 853 c0 -80 14 -111 54 -118 63 -10 106 -12 106 -4 0 5 -25 9 -55
9 -76 0 -95 20 -92 95 2 30 0 61 -5 68 -4 6 -8 -16 -8 -50z"/>
<path d="M3393 865 c0 -27 2 -38 4 -22 2 15 2 37 0 50 -2 12 -4 0 -4 -28z"/>
<path d="M3323 870 c5 -29 13 -33 13 -5 0 14 -4 25 -8 25 -4 0 -7 -9 -5 -20z"/>
<path d="M3324 804 c8 -42 -24 -64 -91 -64 -31 0 -54 -3 -50 -6 3 -3 29 -6 58
-6 39 1 58 6 73 21 20 21 32 81 15 81 -5 0 -7 -12 -5 -26z"/>
<path d="M3392 785 c0 -16 2 -22 5 -12 2 9 2 23 0 30 -3 6 -5 -1 -5 -18z"/>
<path d="M3348 710 c-20 -22 -29 -36 -20 -33 17 7 22 11 56 51 32 37 3 23 -36
-18z"/>
<path d="M248 733 c6 -2 18 -2 25 0 6 3 1 5 -13 5 -14 0 -19 -2 -12 -5z"/>
<path d="M290 732 c0 -4 9 -8 20 -8 11 0 20 4 20 8 0 4 -9 8 -20 8 -11 0 -20
-4 -20 -8z"/>
<path d="M340 736 c0 -2 9 -6 20 -9 11 -3 20 -1 20 4 0 5 -9 9 -20 9 -11 0
-20 -2 -20 -4z"/>
<path d="M390 732 c0 -4 9 -8 20 -8 11 0 20 4 20 8 0 4 -9 8 -20 8 -11 0 -20
-4 -20 -8z"/>
<path d="M440 736 c0 -2 7 -6 15 -10 8 -3 15 -1 15 4 0 6 -7 10 -15 10 -8 0
-15 -2 -15 -4z"/>
<path d="M480 736 c0 -2 11 -6 25 -8 14 -3 25 -1 25 3 0 5 -11 9 -25 9 -14 0
-25 -2 -25 -4z"/>
<path d="M570 733 c0 -5 32 -8 70 -8 39 0 70 3 70 8 0 4 -31 7 -70 7 -38 0
-70 -3 -70 -7z"/>
<path d="M728 733 c6 -2 18 -2 25 0 6 3 1 5 -13 5 -14 0 -19 -2 -12 -5z"/>
<path d="M770 732 c0 -4 9 -8 20 -8 11 0 20 4 20 8 0 4 -9 8 -20 8 -11 0 -20
-4 -20 -8z"/>
<path d="M820 736 c0 -2 9 -6 20 -9 11 -3 20 -1 20 4 0 5 -9 9 -20 9 -11 0
-20 -2 -20 -4z"/>
<path d="M870 732 c0 -4 9 -8 20 -8 11 0 20 4 20 8 0 4 -9 8 -20 8 -11 0 -20
-4 -20 -8z"/>
<path d="M920 736 c0 -2 7 -6 15 -10 8 -3 15 -1 15 4 0 6 -7 10 -15 10 -8 0
-15 -2 -15 -4z"/>
<path d="M960 736 c0 -2 11 -6 25 -8 14 -3 25 -1 25 3 0 5 -11 9 -25 9 -14 0
-25 -2 -25 -4z"/>
<path d="M1050 733 c0 -5 32 -8 70 -8 39 0 70 3 70 8 0 4 -31 7 -70 7 -38 0
-70 -3 -70 -7z"/>
<path d="M1208 733 c6 -2 18 -2 25 0 6 3 1 5 -13 5 -14 0 -19 -2 -12 -5z"/>
<path d="M1250 732 c0 -4 9 -8 20 -8 11 0 20 4 20 8 0 4 -9 8 -20 8 -11 0 -20
-4 -20 -8z"/>
<path d="M1300 736 c0 -2 9 -6 20 -9 11 -3 20 -1 20 4 0 5 -9 9 -20 9 -11 0
-20 -2 -20 -4z"/>
<path d="M1350 732 c0 -4 9 -8 20 -8 11 0 20 4 20 8 0 4 -9 8 -20 8 -11 0 -20
-4 -20 -8z"/>
<path d="M1400 736 c0 -2 7 -6 15 -10 8 -3 15 -1 15 4 0 6 -7 10 -15 10 -8 0
-15 -2 -15 -4z"/>
<path d="M1440 736 c0 -2 11 -6 25 -8 14 -3 25 -1 25 3 0 5 -11 9 -25 9 -14 0
-25 -2 -25 -4z"/>
<path d="M1530 733 c0 -5 32 -8 70 -8 39 0 70 3 70 8 0 4 -31 7 -70 7 -38 0
-70 -3 -70 -7z"/>
<path d="M1688 733 c6 -2 18 -2 25 0 6 3 1 5 -13 5 -14 0 -19 -2 -12 -5z"/>
<path d="M1730 732 c0 -4 9 -8 20 -8 11 0 20 4 20 8 0 4 -9 8 -20 8 -11 0 -20
-4 -20 -8z"/>
<path d="M1780 736 c0 -2 9 -6 20 -9 11 -3 20 -1 20 4 0 5 -9 9 -20 9 -11 0
-20 -2 -20 -4z"/>
<path d="M1830 732 c0 -4 9 -8 20 -8 11 0 20 4 20 8 0 4 -9 8 -20 8 -11 0 -20
-4 -20 -8z"/>
<path d="M1880 736 c0 -2 7 -6 15 -10 8 -3 15 -1 15 4 0 6 -7 10 -15 10 -8 0
-15 -2 -15 -4z"/>
<path d="M1920 736 c0 -2 11 -6 25 -8 14 -3 25 -1 25 3 0 5 -11 9 -25 9 -14 0
-25 -2 -25 -4z"/>
<path d="M2010 733 c0 -5 32 -8 70 -8 39 0 70 3 70 8 0 4 -31 7 -70 7 -38 0
-70 -3 -70 -7z"/>
<path d="M2168 733 c6 -2 18 -2 25 0 6 3 1 5 -13 5 -14 0 -19 -2 -12 -5z"/>
<path d="M2210 732 c0 -4 9 -8 20 -8 11 0 20 4 20 8 0 4 -9 8 -20 8 -11 0 -20
-4 -20 -8z"/>
<path d="M2260 736 c0 -2 9 -6 20 -9 11 -3 20 -1 20 4 0 5 -9 9 -20 9 -11 0
-20 -2 -20 -4z"/>
<path d="M2310 732 c0 -4 9 -8 20 -8 11 0 20 4 20 8 0 4 -9 8 -20 8 -11 0 -20
-4 -20 -8z"/>
<path d="M2360 736 c0 -2 7 -6 15 -10 8 -3 15 -1 15 4 0 6 -7 10 -15 10 -8 0
-15 -2 -15 -4z"/>
<path d="M2400 736 c0 -2 11 -6 25 -8 14 -3 25 -1 25 3 0 5 -11 9 -25 9 -14 0
-25 -2 -25 -4z"/>
<path d="M2490 733 c0 -5 27 -8 60 -8 33 0 60 3 60 8 0 4 -27 7 -60 7 -33 0
-60 -3 -60 -7z"/>
<path d="M2650 733 c0 -5 32 -8 70 -8 39 0 70 3 70 8 0 4 -31 7 -70 7 -38 0
-70 -3 -70 -7z"/>
<path d="M2808 733 c6 -2 18 -2 25 0 6 3 1 5 -13 5 -14 0 -19 -2 -12 -5z"/>
<path d="M2850 732 c0 -4 9 -8 20 -8 11 0 20 4 20 8 0 4 -9 8 -20 8 -11 0 -20
-4 -20 -8z"/>
<path d="M2900 736 c0 -2 9 -6 20 -9 11 -3 20 -1 20 4 0 5 -9 9 -20 9 -11 0
-20 -2 -20 -4z"/>
<path d="M2950 732 c0 -4 9 -8 20 -8 11 0 20 4 20 8 0 4 -9 8 -20 8 -11 0 -20
-4 -20 -8z"/>
<path d="M3000 736 c0 -2 7 -6 15 -10 8 -3 15 -1 15 4 0 6 -7 10 -15 10 -8 0
-15 -2 -15 -4z"/>
<path d="M3040 736 c0 -2 11 -6 25 -8 14 -3 25 -1 25 3 0 5 -11 9 -25 9 -14 0
-25 -2 -25 -4z"/>
<path d="M3130 732 c0 -4 9 -8 20 -8 11 0 20 4 20 8 0 4 -9 8 -20 8 -11 0 -20
-4 -20 -8z"/>
<path d="M143 673 c9 -2 25 -2 35 0 9 3 1 5 -18 5 -19 0 -27 -2 -17 -5z"/>
<path d="M498 673 c7 -3 16 -2 19 1 4 3 -2 6 -13 5 -11 0 -14 -3 -6 -6z"/>
<path d="M538 673 c7 -3 16 -2 19 1 4 3 -2 6 -13 5 -11 0 -14 -3 -6 -6z"/>
<path d="M578 673 c7 -3 16 -2 19 1 4 3 -2 6 -13 5 -11 0 -14 -3 -6 -6z"/>
<path d="M628 673 c12 -2 30 -2 40 0 9 3 -1 5 -23 4 -22 0 -30 -2 -17 -4z"/>
<path d="M818 673 c7 -3 16 -2 19 1 4 3 -2 6 -13 5 -11 0 -14 -3 -6 -6z"/>
<path d="M978 673 c7 -3 16 -2 19 1 4 3 -2 6 -13 5 -11 0 -14 -3 -6 -6z"/>
<path d="M1018 673 c7 -3 16 -2 19 1 4 3 -2 6 -13 5 -11 0 -14 -3 -6 -6z"/>
<path d="M1058 673 c7 -3 16 -2 19 1 4 3 -2 6 -13 5 -11 0 -14 -3 -6 -6z"/>
<path d="M1103 673 c9 -2 25 -2 35 0 9 3 1 5 -18 5 -19 0 -27 -2 -17 -5z"/>
<path d="M1458 673 c7 -3 16 -2 19 1 4 3 -2 6 -13 5 -11 0 -14 -3 -6 -6z"/>
<path d="M1498 673 c7 -3 16 -2 19 1 4 3 -2 6 -13 5 -11 0 -14 -3 -6 -6z"/>
<path d="M1538 673 c7 -3 16 -2 19 1 4 3 -2 6 -13 5 -11 0 -14 -3 -6 -6z"/>
<path d="M1588 673 c12 -2 30 -2 40 0 9 3 -1 5 -23 4 -22 0 -30 -2 -17 -4z"/>
<path d="M1778 673 c7 -3 16 -2 19 1 4 3 -2 6 -13 5 -11 0 -14 -3 -6 -6z"/>
<path d="M1938 673 c7 -3 16 -2 19 1 4 3 -2 6 -13 5 -11 0 -14 -3 -6 -6z"/>
<path d="M1978 673 c7 -3 16 -2 19 1 4 3 -2 6 -13 5 -11 0 -14 -3 -6 -6z"/>
<path d="M2018 673 c7 -3 16 -2 19 1 4 3 -2 6 -13 5 -11 0 -14 -3 -6 -6z"/>
<path d="M2063 673 c9 -2 25 -2 35 0 9 3 1 5 -18 5 -19 0 -27 -2 -17 -5z"/>
<path d="M2418 673 c7 -3 16 -2 19 1 4 3 -2 6 -13 5 -11 0 -14 -3 -6 -6z"/>
<path d="M2458 673 c7 -3 16 -2 19 1 4 3 -2 6 -13 5 -11 0 -14 -3 -6 -6z"/>
<path d="M2498 673 c7 -3 16 -2 19 1 4 3 -2 6 -13 5 -11 0 -14 -3 -6 -6z"/>
<path d="M2538 673 c7 -3 16 -2 19 1 4 3 -2 6 -13 5 -11 0 -14 -3 -6 -6z"/>
<path d="M2578 673 c7 -3 16 -2 19 1 4 3 -2 6 -13 5 -11 0 -14 -3 -6 -6z"/>
<path d="M2618 673 c7 -3 16 -2 19 1 4 3 -2 6 -13 5 -11 0 -14 -3 -6 -6z"/>
<path d="M2658 673 c7 -3 16 -2 19 1 4 3 -2 6 -13 5 -11 0 -14 -3 -6 -6z"/>
<path d="M2703 673 c9 -2 25 -2 35 0 9 3 1 5 -18 5 -19 0 -27 -2 -17 -5z"/>
<path d="M3058 673 c7 -3 16 -2 19 1 4 3 -2 6 -13 5 -11 0 -14 -3 -6 -6z"/>
<path d="M3098 673 c7 -3 16 -2 19 1 4 3 -2 6 -13 5 -11 0 -14 -3 -6 -6z"/>
<path d="M3138 673 c7 -3 16 -2 19 1 4 3 -2 6 -13 5 -11 0 -14 -3 -6 -6z"/>
<path d="M3188 673 c12 -2 30 -2 40 0 9 3 -1 5 -23 4 -22 0 -30 -2 -17 -4z"/>
</g>
</svg>
